<svg xmlns="http://www.w3.org/2000/svg" xmlns:xlink="http://www.w3.org/1999/xlink" width="720" zoomAndPan="magnify" viewBox="0 0 540 540.000001" height="720" preserveAspectRatio="xMidYMid meet" version="1.0"><defs><clipPath id="a2096f53b2"><path d="M 40 54 L 412 54 L 412 486 L 40 486 Z M 40 54 " clip-rule="nonzero"/></clipPath><clipPath id="da9e5cf52b"><path d="M 186.796875 -12.269531 L 485.757812 385.796875 L 264.875 551.683594 L -34.082031 153.617188 Z M 186.796875 -12.269531 " clip-rule="nonzero"/></clipPath><clipPath id="bfab2808aa"><path d="M 186.796875 -12.269531 L 485.757812 385.796875 L 264.875 551.683594 L -34.082031 153.617188 Z M 186.796875 -12.269531 " clip-rule="nonzero"/></clipPath><clipPath id="7e920d67de"><path d="M 186.796875 -12.269531 L 485.757812 385.796875 L 264.875 551.683594 L -34.082031 153.617188 Z M 186.796875 -12.269531 " clip-rule="nonzero"/></clipPath><clipPath id="ac8b3574fb"><path d="M 102.261719 53.542969 L 314.117188 53.542969 L 314.117188 313.3125 L 102.261719 313.3125 Z M 102.261719 53.542969 " clip-rule="nonzero"/></clipPath><clipPath id="f69f08ed52"><path d="M 175.78125 127.644531 L 362.933594 127.644531 L 362.933594 387.414062 L 175.78125 387.414062 Z M 175.78125 127.644531 " clip-rule="nonzero"/></clipPath><clipPath id="5c0b611e94"><path d="M 229.613281 207.019531 L 485.640625 207.019531 L 485.640625 466.789062 L 229.613281 466.789062 Z M 229.613281 207.019531 " clip-rule="nonzero"/></clipPath></defs><g clip-path="url(#a2096f53b2)"><g clip-path="url(#da9e5cf52b)"><g clip-path="url(#bfab2808aa)"><g clip-path="url(#7e920d67de)"><path fill="#231f20" d="M 409.53125 351.320312 C 402.109375 298.222656 376.097656 239.785156 336.285156 186.773438 C 296.464844 133.753906 247.59375 92.480469 198.667969 70.554688 C 149.503906 48.515625 106.113281 48.632812 76.503906 70.871094 C 46.894531 93.105469 34.6875 134.742188 42.152344 188.105469 C 49.570312 241.203125 75.585938 299.640625 115.402344 352.660156 C 155.214844 405.671875 204.089844 446.941406 253.023438 468.878906 C 302.1875 490.921875 345.574219 490.800781 375.183594 468.566406 C 404.785156 446.316406 416.996094 404.683594 409.53125 351.320312 Z M 409.53125 351.320312 " fill-opacity="1" fill-rule="nonzero"/></g></g></g></g><g clip-path="url(#ac8b3574fb)"><path fill="#ffde59" d="M 102.265625 313.324219 L 102.265625 149.59375 L 168.863281 149.59375 L 168.863281 174.457031 L 227.472656 174.484375 C 232.835938 174.484375 237.863281 172.402344 241.628906 168.625 C 245.402344 164.847656 247.476562 159.828125 247.46875 154.488281 L 247.441406 140.132812 C 247.421875 129.171875 238.484375 120.230469 227.515625 120.210938 L 172.238281 120.234375 L 126.65625 53.707031 L 227.589844 53.671875 C 275.152344 53.769531 313.90625 92.5 313.988281 140.015625 L 314.015625 154.371094 C 314.054688 177.507812 305.074219 199.265625 288.730469 215.636719 C 272.382812 232.007812 250.636719 241.023438 227.5 241.023438 L 168.863281 241.070312 L 168.863281 313.324219 Z M 102.265625 313.324219 " fill-opacity="1" fill-rule="nonzero"/></g><g clip-path="url(#f69f08ed52)"><path fill="#004aad" d="M 199.875 387.507812 L 199.875 320.839844 L 278.90625 320.839844 C 288.558594 320.839844 296.414062 312.980469 296.414062 303.324219 L 296.414062 194.289062 L 220.351562 194.289062 L 175.820312 127.625 L 363.070312 127.625 L 363.070312 302.230469 C 363.070312 349.253906 324.824219 387.507812 277.8125 387.507812 Z M 199.875 387.507812 " fill-opacity="1" fill-rule="nonzero"/></g><g clip-path="url(#5c0b611e94)"><path fill="#00bf63" d="M 397.621094 335.121094 L 484.070312 207.171875 L 404.003906 207.171875 L 317.796875 334.746094 L 405.589844 466.78125 L 485.566406 466.78125 Z M 229.597656 466.78125 L 309.671875 466.78125 L 353.007812 401.769531 L 272.90625 401.871094 Z M 339.703125 249.585938 L 309.882812 207.171875 L 229.824219 207.171875 L 299.371094 309.101562 Z M 339.703125 249.585938 " fill-opacity="1" fill-rule="nonzero"/></g></svg>